<svg width="51" height="18" viewBox="0 0 51 18" fill="none" xmlns="http://www.w3.org/2000/svg">
<path d="M23.1989 6.49167C23.1989 8.65636 24.6743 10.25 26.6833 10.25C28.7256 10.25 30.2011 8.65636 30.2011 6.49167C30.2011 4.38664 28.7423 2.82704 26.6583 2.82704C24.6577 2.81852 23.1989 4.38664 23.1989 6.49167ZM32.9103 11.946H26.9C23.6907 11.946 21.2733 9.87506 21.2733 6.44054C21.2733 3.33838 23.749 1.12256 26.7 1.12256C29.6426 1.12256 32.1267 3.34691 32.1267 6.44054C32.1267 8.64784 30.943 9.80688 29.951 10.3949V10.4205H32.9103V11.946ZM39.7125 3.65371C39.3207 3.09123 38.6204 2.81852 37.9035 2.81852C37.0616 2.81852 36.2113 3.21055 36.2113 4.17358C36.2113 6.28713 41.1129 5.08547 41.1129 8.84385C41.1129 11.1108 39.3623 12.2102 37.3367 12.2102C36.053 12.2102 34.8026 11.8096 33.9523 10.7784L35.3361 9.40633C35.7862 10.1052 36.5615 10.5142 37.3784 10.5142C38.2287 10.5142 39.1873 10.037 39.1873 9.06543C39.1873 6.75586 34.2857 8.08536 34.2857 4.30994C34.2857 2.13672 36.178 1.12256 38.0953 1.12256C39.179 1.12256 40.2543 1.43789 41.0546 2.21343L39.7125 3.65371ZM45.8894 5.86101C46.9231 5.86101 48.1318 5.77579 48.1318 4.40368C48.1318 3.15089 46.9981 3.00601 46.0478 3.00601H44.4556V5.86953H45.8894V5.86101ZM42.6217 1.39528H46.2062C48.1902 1.39528 50.0574 2.0515 50.0574 4.42073C50.0574 5.93771 49.1988 7.06267 47.665 7.28425L50.4075 11.946H48.1902L45.7977 7.47175H44.4556V11.946H42.6134V1.39528H42.6217ZM19.4227 16.1475C19.4227 17.0168 18.7391 17.7157 17.8888 17.7157C17.0469 17.7157 16.355 17.0168 16.355 16.1475C16.355 15.2868 17.0386 14.5794 17.8888 14.5794C18.7391 14.5794 19.4227 15.2783 19.4227 16.1475ZM10.4531 16.8464C11.8119 16.8464 13.079 16.4544 14.1376 15.7896C12.6872 16.9913 10.8366 17.7157 8.82762 17.7157C4.1678 17.7157 0.391602 13.855 0.391602 9.091C0.391602 6.76439 1.29189 4.65935 2.75902 3.10828L4.13446 7.73594C3.81769 8.49443 3.65097 9.32963 3.65097 10.1989C3.65097 13.8721 6.69361 16.8464 10.4531 16.8464Z" fill="white"/>
<path d="M22.2651 17.7242H22.7486V14.051H22.2651V17.7242Z" fill="white"/>
<path d="M23.5574 15.2612H24.0159V15.6362H24.0242C24.0826 15.5083 24.1826 15.3975 24.3243 15.3208C24.466 15.2356 24.6327 15.2015 24.8161 15.2015C24.9328 15.2015 25.0412 15.2186 25.1496 15.2527C25.2579 15.2868 25.3496 15.3464 25.4247 15.4231C25.4997 15.4998 25.5664 15.5936 25.6164 15.7129C25.6664 15.8322 25.6914 15.9771 25.6914 16.139V17.7242H25.2329V16.2668C25.2329 16.156 25.2163 16.0538 25.1913 15.9771C25.1579 15.8918 25.1162 15.8322 25.0662 15.7811C25.0162 15.7299 24.9579 15.6958 24.8912 15.6703C24.8245 15.6447 24.7578 15.6362 24.6828 15.6362C24.5911 15.6362 24.4994 15.6532 24.416 15.6788C24.3327 15.7129 24.266 15.764 24.1993 15.8237C24.1409 15.8918 24.0909 15.9771 24.0576 16.0793C24.0242 16.1816 24.0076 16.3094 24.0076 16.4458V17.7156H23.5491V15.2612H23.5574ZM27.6587 15.6703H27.0085V16.7867C27.0085 16.8549 27.0085 16.9231 27.0168 16.9912C27.0168 17.0594 27.0335 17.1191 27.0585 17.1702C27.0835 17.2213 27.1169 17.264 27.1586 17.298C27.2002 17.3321 27.2669 17.3492 27.3586 17.3492C27.417 17.3492 27.467 17.3407 27.5253 17.3321C27.5837 17.3236 27.6337 17.3066 27.6837 17.2725V17.6986C27.6337 17.7327 27.5587 17.7497 27.4753 17.7668C27.392 17.7753 27.3253 17.7838 27.2753 17.7838C27.1002 17.7838 26.9668 17.7582 26.8668 17.7071C26.7668 17.656 26.7001 17.5963 26.6501 17.5111C26.6084 17.4344 26.575 17.3407 26.5667 17.2469C26.5584 17.1446 26.55 17.0509 26.55 16.9486V15.6703H26.0249V15.2612H26.55V14.5709H27.0085V15.2612H27.6587V15.6703ZM30.0261 16.2924C30.0261 16.1901 30.0095 16.0964 29.9761 16.0026C29.9511 15.9174 29.9011 15.8407 29.8511 15.7811C29.7927 15.7129 29.7177 15.6703 29.6343 15.6276C29.551 15.5936 29.451 15.5765 29.3342 15.5765C29.2259 15.5765 29.1175 15.6021 29.0258 15.6447C28.9341 15.6873 28.8508 15.747 28.7924 15.8151C28.7257 15.8833 28.6757 15.96 28.6424 16.0452C28.609 16.1305 28.5923 16.2157 28.5923 16.3009H30.0261V16.2924ZM28.5923 16.6674C28.5923 16.7782 28.6174 16.8719 28.659 16.9571C28.7007 17.0424 28.7674 17.1191 28.8424 17.1873C28.9174 17.2469 29.0008 17.298 29.1008 17.3321C29.2009 17.3662 29.3009 17.3833 29.4009 17.3833C29.5426 17.3833 29.6677 17.3492 29.7677 17.281C29.8761 17.2128 29.9678 17.1276 30.0595 17.0168L30.4013 17.2895C30.1512 17.6219 29.7927 17.7923 29.3342 17.7923C29.1425 17.7923 28.9758 17.7583 28.8174 17.6901C28.6674 17.6219 28.534 17.5367 28.4256 17.4174C28.3173 17.298 28.2339 17.1617 28.1755 17.0083C28.1172 16.8549 28.0922 16.6844 28.0922 16.4969C28.0922 16.3094 28.1255 16.139 28.1839 15.9856C28.2422 15.8322 28.3339 15.6873 28.4423 15.5765C28.5507 15.4572 28.684 15.372 28.8341 15.3038C28.9841 15.2356 29.1509 15.2015 29.3342 15.2015C29.551 15.2015 29.726 15.2356 29.8761 15.3123C30.0261 15.389 30.1428 15.4913 30.2345 15.6106C30.3262 15.7299 30.4013 15.8748 30.4429 16.0282C30.4846 16.1816 30.5096 16.335 30.5096 16.4969V16.6589H28.5923V16.6674ZM31.0598 15.2612H31.5183V15.6362H31.5266C31.56 15.568 31.6016 15.5083 31.6517 15.4572C31.7017 15.4061 31.76 15.3549 31.8184 15.3208C31.8767 15.2868 31.9517 15.2527 32.0268 15.2271C32.1018 15.2015 32.1768 15.193 32.2518 15.193C32.3269 15.193 32.3936 15.2015 32.4519 15.2271L32.4352 15.7299C32.4019 15.7214 32.3602 15.7129 32.3269 15.7043C32.2935 15.6958 32.2518 15.6958 32.2185 15.6958C31.9934 15.6958 31.8267 15.764 31.71 15.8918C31.5933 16.0197 31.535 16.2157 31.535 16.4884V17.7242H31.0765V15.2612H31.0598ZM32.9354 15.2612H33.3939V15.6362H33.4022C33.4606 15.5083 33.5606 15.3975 33.7023 15.3208C33.844 15.2356 34.0107 15.2015 34.1941 15.2015C34.3108 15.2015 34.4192 15.2186 34.5276 15.2527C34.6359 15.2868 34.7276 15.3464 34.8027 15.4231C34.886 15.4998 34.9444 15.5936 34.9944 15.7129C35.0444 15.8322 35.0694 15.9771 35.0694 16.139V17.7242H34.6109V16.2668C34.6109 16.156 34.5943 16.0538 34.5693 15.9771C34.5359 15.8918 34.4942 15.8322 34.4442 15.7811C34.3942 15.7299 34.3358 15.6958 34.2692 15.6703C34.2025 15.6447 34.1358 15.6362 34.0608 15.6362C33.9691 15.6362 33.8774 15.6532 33.794 15.6788C33.7106 15.7129 33.644 15.764 33.5773 15.8237C33.5189 15.8918 33.4689 15.9771 33.4356 16.0793C33.4022 16.1816 33.3855 16.3094 33.3855 16.4458V17.7156H32.9271V15.2612H32.9354ZM37.045 16.5395C36.9367 16.5395 36.8283 16.5481 36.7116 16.5566C36.5949 16.5651 36.4949 16.5907 36.4032 16.6248C36.3115 16.6589 36.2365 16.71 36.1781 16.7697C36.1197 16.8293 36.0864 16.9145 36.0864 17.0083C36.0864 17.1532 36.1364 17.2554 36.2281 17.3151C36.3198 17.3747 36.4448 17.4088 36.6032 17.4088C36.7283 17.4088 36.8366 17.3833 36.92 17.3407C37.0117 17.298 37.0784 17.2384 37.1367 17.1702C37.1868 17.102 37.2284 17.0253 37.2534 16.9401C37.2784 16.8549 37.2868 16.7697 37.2868 16.6844V16.531H37.045V16.5395ZM35.7613 15.5595C35.8863 15.4402 36.0364 15.3464 36.2031 15.2868C36.3698 15.2271 36.5365 15.193 36.7116 15.193C36.8867 15.193 37.0367 15.2186 37.1617 15.2612C37.2868 15.3038 37.3952 15.3635 37.4702 15.4402C37.5535 15.5169 37.6119 15.6021 37.6536 15.7043C37.6952 15.8066 37.7119 15.9089 37.7119 16.0112V17.264C37.7119 17.3492 37.7119 17.4259 37.7203 17.5026C37.7203 17.5793 37.7286 17.6475 37.7369 17.7071H37.3285C37.3201 17.5793 37.3118 17.46 37.3118 17.3321H37.3035C37.2034 17.4941 37.0867 17.6048 36.945 17.673C36.8033 17.7412 36.6449 17.7753 36.4615 17.7753C36.3532 17.7753 36.2448 17.7583 36.1448 17.7327C36.0447 17.6986 35.953 17.656 35.878 17.5963C35.803 17.5367 35.7446 17.46 35.6946 17.3662C35.6529 17.2725 35.6279 17.1702 35.6279 17.0509C35.6279 16.889 35.6613 16.7611 35.728 16.6503C35.7946 16.5395 35.8947 16.4543 36.0114 16.3861C36.1281 16.318 36.2698 16.2668 36.4282 16.2413C36.5866 16.2157 36.7616 16.1987 36.945 16.1987H37.2784V16.0964C37.2784 16.0367 37.2701 15.9685 37.2451 15.9089C37.2201 15.8492 37.1868 15.7896 37.1367 15.7384C37.0867 15.6873 37.0284 15.6447 36.9617 15.6191C36.895 15.5936 36.8033 15.5765 36.7116 15.5765C36.6199 15.5765 36.5449 15.585 36.4782 15.6021C36.4115 15.6191 36.3532 15.6447 36.2948 15.6703C36.2448 15.6958 36.1948 15.7299 36.1448 15.764C36.1031 15.7981 36.0614 15.8322 36.0197 15.8663L35.7613 15.5595ZM39.6625 15.6703H39.0123V16.7867C39.0123 16.8549 39.0123 16.9231 39.0207 16.9912C39.0207 17.0594 39.0373 17.1191 39.0623 17.1702C39.0874 17.2213 39.1207 17.264 39.1624 17.298C39.2041 17.3321 39.2707 17.3492 39.3624 17.3492C39.4208 17.3492 39.4708 17.3407 39.5292 17.3321C39.5875 17.3236 39.6375 17.3066 39.6875 17.2725V17.6986C39.6375 17.7327 39.5625 17.7497 39.4791 17.7668C39.3958 17.7753 39.3291 17.7838 39.2791 17.7838C39.104 17.7838 38.9707 17.7582 38.8706 17.7071C38.7706 17.656 38.7039 17.5963 38.6539 17.5111C38.6122 17.4344 38.5789 17.3407 38.5705 17.2469C38.5622 17.1446 38.5539 17.0509 38.5539 16.9486V15.6703H38.0287V15.2612H38.5539V14.5709H39.0123V15.2612H39.6625V15.6703ZM40.2877 17.7242H40.7462V15.2612H40.2877V17.7242ZM40.1794 14.3834C40.1794 14.2896 40.2127 14.2129 40.2794 14.1448C40.3461 14.0766 40.4211 14.0425 40.5128 14.0425C40.6045 14.0425 40.6795 14.0766 40.7462 14.1448C40.8129 14.2129 40.8463 14.2896 40.8463 14.3834C40.8463 14.4771 40.8129 14.5538 40.7462 14.622C40.6795 14.6902 40.6045 14.7243 40.5128 14.7243C40.4211 14.7243 40.3461 14.6902 40.2794 14.622C40.2127 14.5538 40.1794 14.4686 40.1794 14.3834ZM41.8382 16.4884C41.8382 16.6162 41.8549 16.727 41.8966 16.8378C41.9383 16.9486 41.9883 17.0338 42.055 17.1105C42.1217 17.1872 42.205 17.2469 42.305 17.2895C42.4051 17.3321 42.5135 17.3577 42.6385 17.3577C42.7635 17.3577 42.8719 17.3321 42.9636 17.2895C43.0636 17.2469 43.147 17.1872 43.2137 17.1105C43.2804 17.0338 43.3304 16.9486 43.3721 16.8378C43.4054 16.7356 43.4304 16.6162 43.4304 16.4884C43.4304 16.3606 43.4137 16.2498 43.3721 16.139C43.3387 16.0367 43.2804 15.943 43.2137 15.8663C43.147 15.7896 43.0636 15.7299 42.9636 15.6873C42.8636 15.6447 42.7552 15.6191 42.6385 15.6191C42.5135 15.6191 42.4051 15.6447 42.305 15.6873C42.205 15.7299 42.1217 15.7896 42.055 15.8663C41.9883 15.943 41.9383 16.0282 41.8966 16.139C41.8549 16.2498 41.8382 16.3691 41.8382 16.4884ZM41.3464 16.4884C41.3464 16.3094 41.3798 16.139 41.4464 15.9856C41.5131 15.8322 41.6048 15.6958 41.7215 15.5765C41.8382 15.4572 41.9716 15.3635 42.13 15.2953C42.2884 15.2271 42.4551 15.193 42.6302 15.193C42.8052 15.193 42.9719 15.2271 43.1303 15.2953C43.2887 15.3635 43.4221 15.4572 43.5388 15.5765C43.6555 15.6958 43.7472 15.8322 43.8055 15.9856C43.8722 16.139 43.9056 16.3094 43.9056 16.4884C43.9056 16.6674 43.8722 16.8378 43.8055 16.9912C43.7388 17.1532 43.6471 17.2895 43.5388 17.4003C43.4221 17.5196 43.2887 17.6048 43.1303 17.673C42.9719 17.7412 42.8052 17.7753 42.6302 17.7753C42.4468 17.7753 42.28 17.7412 42.13 17.673C41.9716 17.6048 41.8382 17.5111 41.7215 17.4003C41.6048 17.281 41.5131 17.1446 41.4464 16.9912C41.3798 16.8378 41.3464 16.6759 41.3464 16.4884ZM44.4724 15.2612H44.9309V15.6362H44.9392C44.9976 15.5083 45.0976 15.3975 45.2393 15.3208C45.381 15.2356 45.5477 15.2015 45.7311 15.2015C45.8478 15.2015 45.9562 15.2186 46.0646 15.2527C46.1729 15.2868 46.2646 15.3464 46.3397 15.4231C46.423 15.4998 46.4814 15.5936 46.5314 15.7129C46.5814 15.8322 46.6064 15.9771 46.6064 16.139V17.7242H46.1479V16.2668C46.1479 16.156 46.1313 16.0538 46.1063 15.9771C46.0729 15.8918 46.0312 15.8322 45.9812 15.7811C45.9312 15.7299 45.8729 15.6958 45.8062 15.6703C45.7395 15.6447 45.6728 15.6362 45.5978 15.6362C45.5061 15.6362 45.4144 15.6532 45.331 15.6788C45.2477 15.7129 45.181 15.764 45.1143 15.8237C45.0559 15.8918 45.0059 15.9771 44.9726 16.0793C44.9392 16.1816 44.9225 16.3094 44.9225 16.4458V17.7156H44.4641V15.2612H44.4724ZM48.5821 16.5395C48.4737 16.5395 48.3653 16.5481 48.2486 16.5566C48.1319 16.5651 48.0319 16.5907 47.9402 16.6248C47.8485 16.6589 47.7735 16.71 47.7151 16.7697C47.6568 16.8293 47.6234 16.9145 47.6234 17.0083C47.6234 17.1532 47.6734 17.2554 47.7651 17.3151C47.8568 17.3747 47.9819 17.4088 48.1402 17.4088C48.2653 17.4088 48.3737 17.3833 48.457 17.3407C48.5487 17.298 48.6154 17.2384 48.6737 17.1702C48.7238 17.102 48.7654 17.0253 48.7905 16.9401C48.8155 16.8549 48.8238 16.7697 48.8238 16.6844V16.531H48.5821V16.5395ZM47.2983 15.5595C47.4233 15.4402 47.5734 15.3464 47.7401 15.2868C47.9068 15.2271 48.0736 15.193 48.2486 15.193C48.4237 15.193 48.5737 15.2186 48.6988 15.2612C48.8238 15.3038 48.9322 15.3635 49.0072 15.4402C49.0905 15.5169 49.1489 15.6021 49.1906 15.7043C49.2323 15.8066 49.2489 15.9089 49.2489 16.0112V17.264C49.2489 17.3492 49.2489 17.4259 49.2573 17.5026C49.2573 17.5793 49.2656 17.6475 49.2739 17.7071H48.8655C48.8571 17.5793 48.8488 17.46 48.8488 17.3321H48.8405C48.7404 17.4941 48.6237 17.6048 48.482 17.673C48.3403 17.7412 48.1819 17.7753 47.9985 17.7753C47.8902 17.7753 47.7818 17.7583 47.6818 17.7327C47.5817 17.6986 47.49 17.656 47.415 17.5963C47.34 17.5367 47.2816 17.46 47.2316 17.3662C47.1899 17.2725 47.1649 17.1702 47.1649 17.0509C47.1649 16.889 47.1983 16.7611 47.265 16.6503C47.3317 16.5395 47.4317 16.4543 47.5484 16.3861C47.6651 16.318 47.8068 16.2668 47.9652 16.2413C48.1236 16.2157 48.2986 16.1987 48.482 16.1987H48.8155V16.0964C48.8155 16.0367 48.8071 15.9685 48.7821 15.9089C48.7571 15.8492 48.7238 15.7896 48.6737 15.7384C48.6237 15.6873 48.5654 15.6447 48.4987 15.6191C48.432 15.5936 48.3403 15.5765 48.2486 15.5765C48.1569 15.5765 48.0819 15.585 48.0152 15.6021C47.9485 15.6191 47.8902 15.6447 47.8318 15.6703C47.7818 15.6958 47.7318 15.7299 47.6818 15.764C47.6401 15.7981 47.5984 15.8322 47.5567 15.8663L47.2983 15.5595Z" fill="white"/>
<path d="M49.8989 17.7242H50.3574V13.7954H49.8989V17.7242Z" fill="white"/>
<mask id="mask0_1126_271" style="mask-type:alpha" maskUnits="userSpaceOnUse" x="0" y="0" width="18" height="18">
<path d="M0.391602 8.93759C0.391602 13.7016 4.1678 17.5623 8.82762 17.5623C10.8449 17.5623 12.6872 16.8379 14.1376 15.6362C13.079 16.3009 11.8119 16.693 10.4531 16.693C6.69361 16.693 3.64264 13.7187 3.64264 10.0455C3.64264 7.80411 4.77633 5.83543 6.51022 4.62525C7.22711 4.18209 8.06905 3.92642 8.96933 3.92642C11.6118 3.92642 13.7542 6.11668 13.7542 8.81828C13.7542 11.5199 11.6118 13.7101 8.96933 13.7101C7.89399 13.7101 6.89367 13.3437 6.09342 12.7301C7.22711 14.2641 9.02768 15.2527 11.045 15.2527C14.2877 15.2527 16.9385 12.713 17.222 9.4745C17.222 9.49155 17.222 9.50007 17.2303 9.51711C17.247 9.3211 17.2553 9.12508 17.2553 8.92055V8.9035C17.2553 8.68192 17.247 8.46886 17.222 8.24727C16.8885 3.79858 13.2624 0.287354 8.81928 0.287354C4.1678 0.312921 0.391602 4.17357 0.391602 8.93759Z" fill="white"/>
</mask>
<g mask="url(#mask0_1126_271)">
<path d="M8.82769 17.5623C10.845 17.5623 12.6873 16.8379 14.1377 15.6362C13.0791 16.301 11.812 16.693 10.4532 16.693C6.69368 16.693 3.64271 13.7187 3.64271 10.0455C3.64271 7.80413 4.7764 5.83546 6.51029 4.62528C7.22719 4.18211 8.06912 3.92644 8.96941 3.92644C11.6119 3.92644 13.7543 6.1167 13.7543 8.8183C13.7543 11.5199 11.6119 13.7102 8.96941 13.7102C7.89406 13.7102 6.89375 13.3437 6.09349 12.7301C7.22719 14.2641 9.02776 15.2527 11.0451 15.2527C14.2878 15.2527 16.9386 12.713 17.222 9.47452C17.2387 9.32112 17.247 9.12511 17.247 8.92057C17.247 8.69046 17.2387 8.46888 17.2137 8.25582C16.8803 3.80713 13.2541 0.295898 8.81102 0.295898C4.1512 0.295898 0.375 4.15655 0.375 8.92057C0.391672 13.7016 4.16788 17.5623 8.82769 17.5623Z" fill="white"/>
</g>
</svg>
