<svg width="236" height="291" viewBox="0 0 236 291" fill="none" xmlns="http://www.w3.org/2000/svg">
<path d="M78.2085 0C54.6695 94.0005 -30.4051 126.974 -70 131.71C32.0023 147.012 71.3066 225.528 78.2085 262.874C100.004 163.627 185.369 134.078 225.327 131.71C124.633 118.594 85.2919 38.4382 78.2085 0Z" fill="#4898D1" fill-opacity="0.5"/>
<path d="M157.39 188.23C148.078 224.98 114.422 237.87 98.7583 239.722C139.111 245.704 154.66 276.4 157.39 291C166.013 252.2 199.783 240.648 215.591 239.722C175.756 234.594 160.192 203.258 157.39 188.23Z" fill="#4898D1" fill-opacity="0.5"/>
<path d="M200.035 151.45C194.431 173.886 174.175 181.756 164.747 182.887C189.034 186.539 198.392 205.28 200.035 214.193C205.224 190.505 225.549 183.452 235.063 182.887C211.088 179.756 201.722 160.624 200.035 151.45Z" fill="#4898D1" fill-opacity="0.5"/>
</svg>
