<svg width="48" height="48" viewBox="0 0 48 48" fill="none" xmlns="http://www.w3.org/2000/svg">
<path fill-rule="evenodd" clip-rule="evenodd" d="M24 0C10.7452 0 0 10.7452 0 24C0 37.2548 10.7452 48 24 48C37.2548 48 48 37.2548 48 24C48 10.7452 37.2548 0 24 0Z" fill="#189AD6"/>
<path d="M24.4597 22.7778C21.7839 22.1222 20.9234 21.4444 20.9234 20.3889C20.9234 19.1778 22.1139 18.3333 24.1061 18.3333C26.2043 18.3333 26.9823 19.2778 27.053 20.6667H29.6582C29.5756 18.7556 28.3379 17 25.8743 16.4333V14H22.3379V16.4C20.0511 16.8667 18.2122 18.2667 18.2122 20.4111C18.2122 22.9778 20.4637 24.2556 23.7525 25C26.6994 25.6667 27.2888 26.6444 27.2888 27.6778C27.2888 28.4444 26.7112 29.6667 24.1061 29.6667C21.6778 29.6667 20.723 28.6444 20.5933 27.3333H18C18.1415 29.7667 20.0747 31.1333 22.3379 31.5889V34H25.8743V31.6111C28.1729 31.2 30 29.9444 30 27.6667C30 24.5111 27.1356 23.4333 24.4597 22.7778Z" fill="white"/>
</svg>
