<svg width="14" height="24" viewBox="0 0 14 24" fill="none" xmlns="http://www.w3.org/2000/svg">
<path d="M3.5041 23.3867C2.94152 23.6905 2.2596 24 1.80768 24C1.02049 24 0.564674 23.5934 0.564674 22.8776C0.564674 22.3618 0.902639 21.9524 2.03469 21.3404C5.87735 19.0859 8.47611 15.699 8.47611 12.1149C8.47611 10.0667 7.90934 9.0006 6.77999 9.0006C6.44322 9.0006 5.98651 9.10316 5.19842 9.20812H4.52099C1.92013 9.20812 0 7.36415 0 4.80888C0 1.94442 2.37295 0 5.65034 0C10.0544 0 13.2211 3.47951 13.2211 8.59216C13.2214 14.9343 9.60486 20.1112 3.5041 23.3867Z" fill="#7D868B"/>
</svg>
