<svg width="48" height="48" viewBox="0 0 48 48" fill="none" xmlns="http://www.w3.org/2000/svg">
<path fill-rule="evenodd" clip-rule="evenodd" d="M24 0C10.7452 0 0 10.7452 0 24C0 37.2548 10.7452 48 24 48C37.2548 48 48 37.2548 48 24C48 10.7452 37.2548 0 24 0Z" fill="#189AD6"/>
<path d="M19.08 14.4C17.5008 14.4 16.2 15.7009 16.2 17.28V30.72C16.2 32.2992 17.5008 33.6 19.08 33.6H31.56V31.68H19.08C18.5375 31.68 18.12 31.2625 18.12 30.72C18.12 30.1776 18.5375 29.76 19.08 29.76H31.56V27.84V14.4H27.72H21.96H19.08ZM19.08 16.32H21.96V24.1181L23.4712 23.0588L24.84 22.0969L27.72 24.1181V16.32H29.64V27.84H19.08C18.7422 27.84 18.4222 27.911 18.12 28.02V17.28C18.12 16.7376 18.5375 16.32 19.08 16.32ZM23.88 16.32H25.8V20.4263L24.84 19.7531L23.88 20.4263V16.32Z" fill="white"/>
</svg>
