<svg width="24" height="16" viewBox="0 0 24 16" fill="none" xmlns="http://www.w3.org/2000/svg">
<path d="M20 14C21.1 14 21.99 13.1 21.99 12L22 2C22 0.89 21.1 0 20 0H4C2.89 0 2 0.89 2 2V12C2 13.1 2.89 14 4 14H0V16H24V14H20ZM4 12V2H20V12V12.01L4 12ZM9.0967 5.9531C9.0967 4.9261 9.9327 4.0891 10.9607 4.0891C11.9877 4.0891 12.8247 4.9261 12.8247 5.9531C12.8247 6.9801 11.9877 7.8171 10.9607 7.8171C9.9327 7.8171 9.0967 6.9801 9.0967 5.9531ZM16.1287 10.1891L13.6467 7.7071C13.9777 7.2021 14.1737 6.6001 14.1737 5.9531C14.1737 4.1811 12.7327 2.7401 10.9607 2.7401C9.1887 2.7401 7.7467 4.1811 7.7467 5.9531C7.7467 7.7251 9.1887 9.1671 10.9607 9.1671C11.5967 9.1671 12.1857 8.9751 12.6847 8.6561L15.1737 11.1441L16.1287 10.1891Z" fill="white"/>
</svg>
