<!-- Generated by IcoMoon.io -->
<svg version="1.1" xmlns="http://www.w3.org/2000/svg" width="32" height="32" viewBox="0 0 32 32">
<title>folder-shared</title>
<path fill="#0269ae" d="M26.667 8h-10.667l-1.88-1.88c-0.507-0.507-1.187-0.787-1.893-0.787h-6.893c-1.467 0-2.653 1.2-2.653 2.667l-0.013 16c0 1.467 1.2 2.667 2.667 2.667h21.333c1.467 0 2.667-1.2 2.667-2.667v-13.333c0-1.467-1.2-2.667-2.667-2.667zM20 12c1.467 0 2.667 1.2 2.667 2.667s-1.2 2.667-2.667 2.667-2.667-1.2-2.667-2.667c0-1.467 1.2-2.667 2.667-2.667zM25.333 22.667h-10.667v-1.333c0-1.773 3.56-2.667 5.333-2.667s5.333 0.893 5.333 2.667v1.333z"></path>
</svg>
