<svg width="48" height="48" viewBox="0 0 48 48" fill="none" xmlns="http://www.w3.org/2000/svg">
<path fill-rule="evenodd" clip-rule="evenodd" d="M48 24.0387C47.9791 37.2757 37.2419 48 24 48C10.7452 48 0 37.2548 0 24C0 10.7452 10.7452 0 24 0C37.2419 0 47.9791 10.7243 48 23.9613V24.0387Z" fill="#189AD6"/>
<path d="M23.9999 14.4C18.7093 14.4 14.3999 18.7095 14.3999 24C14.3999 29.2906 18.7093 33.6 23.9999 33.6C29.2905 33.6 33.5999 29.2906 33.5999 24C33.5999 18.7095 29.2905 14.4 23.9999 14.4ZM23.9999 16.32C28.2528 16.32 31.6799 19.7471 31.6799 24C31.6799 28.2529 28.2528 31.68 23.9999 31.68C19.747 31.68 16.3199 28.2529 16.3199 24C16.3199 19.7471 19.747 16.32 23.9999 16.32ZM23.0399 19.2V21.12H24.9599V19.2H23.0399ZM23.0399 23.04V28.8H24.9599V23.04H23.0399Z" fill="white"/>
</svg>
