<svg width="30" height="29" viewBox="0 0 30 29" fill="none" xmlns="http://www.w3.org/2000/svg">
<circle cx="27.5" cy="26.5" r="2.5" fill="white"/>
<path d="M13.6182 28.1715C16.8683 28.1715 19.8364 26.9895 22.1733 25.0289C20.4676 26.1135 18.4262 26.7532 16.2371 26.7532C10.1801 26.7532 5.26464 21.9003 5.26464 15.9073C5.26464 12.2503 7.09115 9.03823 9.88463 7.06372C11.0396 6.34066 12.3961 5.92352 13.8465 5.92352C18.1039 5.92352 21.5555 9.49709 21.5555 13.905C21.5555 18.3128 18.1039 21.8864 13.8465 21.8864C12.114 21.8864 10.5024 21.2885 9.21312 20.2873C11.0396 22.7902 13.9406 24.4032 17.1907 24.4032C22.415 24.4032 26.6858 20.2595 27.1425 14.9757C27.1693 14.7254 27.1827 14.4055 27.1827 14.0718C27.1827 13.6964 27.1693 13.3349 27.129 12.9872C26.5918 5.72885 20.7497 0 13.5914 0C6.08388 0 0 6.29895 0 14.0718C0.0268604 21.8725 6.11074 28.1715 13.6182 28.1715Z" fill="white"/>
</svg>
