<!-- Generated by IcoMoon.io -->
<svg version="1.1" xmlns="http://www.w3.org/2000/svg" width="32" height="32" viewBox="0 0 32 32">
<title>record_voice_over</title>
<path fill="#0269ae" d="M12 17.333c2.945 0 5.333-2.388 5.333-5.333s-2.388-5.333-5.333-5.333c-2.946 0-5.333 2.388-5.333 5.333s2.388 5.333 5.333 5.333z"></path>
<path fill="#0269ae" d="M12 20c-3.56 0-10.667 1.787-10.667 5.333v2.667h21.333v-2.667c0-3.547-7.107-5.333-10.667-5.333zM22.347 7.147l-2.24 2.253c1.12 1.573 1.12 3.613 0 5.187l2.24 2.253c2.693-2.693 2.693-6.76 0-9.693zM26.76 2.667l-2.173 2.173c3.693 4.027 3.693 10.080 0 14.32l2.173 2.173c5.2-5.187 5.213-13.267 0-18.667z"></path>
</svg>
