<!-- Generated by IcoMoon.io -->
<svg version="1.1" xmlns="http://www.w3.org/2000/svg" width="32" height="32" viewBox="0 0 32 32">
<title>security</title>
<path fill="#0269ae" d="M13.333 21.333h5.333c0.733 0 1.333-0.6 1.333-1.333v-6.667h2.12c1.187 0 1.787-1.44 0.947-2.28l-6.12-6.12c-0.52-0.52-1.36-0.52-1.88 0l-6.12 6.12c-0.84 0.84-0.253 2.28 0.933 2.28h2.12v6.667c0 0.733 0.6 1.333 1.333 1.333zM8 24h16c0.733 0 1.333 0.6 1.333 1.333s-0.6 1.333-1.333 1.333h-16c-0.733 0-1.333-0.6-1.333-1.333s0.6-1.333 1.333-1.333z"></path>
</svg>
