<svg width="24" height="25" viewBox="0 0 24 25" fill="none" xmlns="http://www.w3.org/2000/svg">
<path d="M19.43 13.7378C19.47 13.4178 19.5 13.0978 19.5 12.7578C19.5 12.4178 19.47 12.0978 19.43 11.7778L21.54 10.1278C21.73 9.97781 21.78 9.70781 21.66 9.48781L19.66 6.02781C19.57 5.86781 19.4 5.77781 19.22 5.77781C19.16 5.77781 19.1 5.78781 19.05 5.80781L16.56 6.80781C16.04 6.40781 15.48 6.07781 14.87 5.82781L14.49 3.17781C14.46 2.93781 14.25 2.75781 14 2.75781H10C9.75002 2.75781 9.54002 2.93781 9.51002 3.17781L9.13002 5.82781C8.52002 6.07781 7.96002 6.41781 7.44002 6.80781L4.95002 5.80781C4.89002 5.78781 4.83002 5.77781 4.77002 5.77781C4.60002 5.77781 4.43002 5.86781 4.34002 6.02781L2.34002 9.48781C2.21002 9.70781 2.27002 9.97781 2.46002 10.1278L4.57002 11.7778C4.53002 12.0978 4.50002 12.4278 4.50002 12.7578C4.50002 13.0878 4.53002 13.4178 4.57002 13.7378L2.46002 15.3878C2.27002 15.5378 2.22002 15.8078 2.34002 16.0278L4.34002 19.4878C4.43002 19.6478 4.60002 19.7378 4.78002 19.7378C4.84002 19.7378 4.90002 19.7278 4.95002 19.7078L7.44002 18.7078C7.96002 19.1078 8.52002 19.4378 9.13002 19.6878L9.51002 22.3378C9.54002 22.5778 9.75002 22.7578 10 22.7578H14C14.25 22.7578 14.46 22.5778 14.49 22.3378L14.87 19.6878C15.48 19.4378 16.04 19.0978 16.56 18.7078L19.05 19.7078C19.11 19.7278 19.17 19.7378 19.23 19.7378C19.4 19.7378 19.57 19.6478 19.66 19.4878L21.66 16.0278C21.78 15.8078 21.73 15.5378 21.54 15.3878L19.43 13.7378ZM17.45 12.0278C17.49 12.3378 17.5 12.5478 17.5 12.7578C17.5 12.9678 17.48 13.1878 17.45 13.4878L17.31 14.6178L18.2 15.3178L19.28 16.1578L18.58 17.3678L17.31 16.8578L16.27 16.4378L15.37 17.1178C14.94 17.4378 14.53 17.6778 14.12 17.8478L13.06 18.2778L12.9 19.4078L12.7 20.7578H11.3L11.11 19.4078L10.95 18.2778L9.89002 17.8478C9.46002 17.6678 9.06002 17.4378 8.66002 17.1378L7.75002 16.4378L6.69002 16.8678L5.42002 17.3778L4.72002 16.1678L5.80002 15.3278L6.69002 14.6278L6.55002 13.4978C6.52002 13.1878 6.50002 12.9578 6.50002 12.7578C6.50002 12.5578 6.52002 12.3278 6.55002 12.0278L6.69002 10.8978L5.80002 10.1978L4.72002 9.35781L5.42002 8.14781L6.69002 8.65781L7.73002 9.07781L8.63002 8.39781C9.06002 8.07781 9.47002 7.83781 9.88002 7.66781L10.94 7.23781L11.1 6.10781L11.3 4.75781H12.69L12.88 6.10781L13.04 7.23781L14.1 7.66781C14.53 7.84781 14.93 8.07781 15.33 8.37781L16.24 9.07781L17.3 8.64781L18.57 8.13781L19.27 9.34781L18.2 10.1978L17.31 10.8978L17.45 12.0278ZM12 8.75781C9.79002 8.75781 8.00002 10.5478 8.00002 12.7578C8.00002 14.9678 9.79002 16.7578 12 16.7578C14.21 16.7578 16 14.9678 16 12.7578C16 10.5478 14.21 8.75781 12 8.75781ZM12 14.7578C10.9 14.7578 10 13.8578 10 12.7578C10 11.6578 10.9 10.7578 12 10.7578C13.1 10.7578 14 11.6578 14 12.7578C14 13.8578 13.1 14.7578 12 14.7578Z" fill="#323232"/>
</svg>
