<!-- Generated by IcoMoon.io -->
<svg version="1.1" xmlns="http://www.w3.org/2000/svg" width="32" height="32" viewBox="0 0 32 32">
<title>wifi_off</title>
<path fill="#0269ae" d="M26.747 13.52c0.747 0.613 1.84 0.56 2.52-0.12 0.787-0.787 0.733-2.093-0.133-2.8-4.787-3.92-10.933-5.373-16.733-4.347l3.453 3.453c3.853-0.040 7.733 1.227 10.893 3.813zM23.72 15.96c-1.040-0.76-2.173-1.333-3.36-1.733l3.933 3.933c0.32-0.773 0.133-1.693-0.573-2.2zM18.6 21.64c-1.627-0.84-3.573-0.84-5.213 0-0.787 0.413-0.933 1.493-0.307 2.12l1.96 1.96c0.52 0.52 1.36 0.52 1.88 0l1.96-1.96c0.653-0.627 0.52-1.707-0.28-2.12zM26.24 23.867l-20.747-20.747c-0.52-0.52-1.36-0.52-1.88 0s-0.52 1.36 0 1.88l3.12 3.133c-1.347 0.667-2.653 1.48-3.853 2.467-0.867 0.707-0.92 2.013-0.133 2.8 0.68 0.68 1.76 0.747 2.493 0.133 1.333-1.093 2.8-1.947 4.333-2.573l2.973 2.973c-1.507 0.4-2.947 1.067-4.253 2.013-0.92 0.667-0.973 2.013-0.173 2.813l0.013 0.013c0.653 0.653 1.68 0.72 2.44 0.173 1.587-1.12 3.44-1.68 5.293-1.72l8.493 8.493c0.52 0.52 1.36 0.52 1.88 0 0.52-0.493 0.52-1.333 0-1.853z"></path>
</svg>
